<?xml version="1.0" standalone="no"?>
<!DOCTYPE svg PUBLIC "-//W3C//DTD SVG 20010904//EN"
 "http://www.w3.org/TR/2001/REC-SVG-20010904/DTD/svg10.dtd">
<svg version="1.0" xmlns="http://www.w3.org/2000/svg"
 width="1178.000000pt" height="315.000000pt" viewBox="0 0 1178.000000 315.000000"
 preserveAspectRatio="xMidYMid meet">

<g transform="translate(0.000000,315.000000) scale(0.100000,-0.100000)"
fill="#000000" stroke="none">
<path d="M1714 2440 c-70 -23 -149 -86 -170 -137 -49 -116 24 -265 183 -374
47 -33 183 -110 183 -104 0 1 -6 20 -14 41 -53 152 -10 291 109 350 50 24 64
26 135 22 97 -6 182 -44 267 -121 l57 -52 -34 49 c-187 266 -481 400 -716 326z"/>
<path d="M1387 2325 c-65 -54 -130 -131 -160 -190 -65 -129 -47 -318 43 -453
80 -119 195 -207 387 -298 266 -125 387 -236 408 -375 6 -42 -7 -122 -31 -182
-11 -30 80 32 149 100 105 105 153 251 128 392 -19 107 -62 183 -151 272 -69
69 -92 84 -251 164 -285 143 -392 224 -445 338 -28 61 -32 164 -9 240 8 26 11
47 6 47 -4 0 -37 -25 -74 -55z"/>
<path d="M9310 2200 l0 -140 165 0 165 0 0 140 0 140 -165 0 -165 0 0 -140z"/>
<path d="M6977 2223 c-4 -3 -7 -287 -7 -630 l0 -623 175 0 175 0 0 195 0 195
63 0 63 0 101 -192 101 -193 191 -3 c105 -1 191 -1 191 1 0 2 -54 103 -120
225 -66 121 -120 224 -120 229 0 4 16 19 35 32 47 32 89 86 123 158 24 53 27
69 27 173 0 109 -2 119 -32 182 -63 133 -187 225 -333 248 -72 11 -623 14
-633 3z m590 -323 c88 -53 82 -190 -10 -233 -25 -12 -62 -17 -136 -17 l-101 0
0 135 0 135 108 0 c88 0 113 -3 139 -20z"/>
<path d="M2655 1993 c-200 -215 -210 -228 -213 -269 l-3 -44 90 0 90 0 3 -237
c3 -226 4 -241 27 -291 29 -64 99 -130 167 -156 38 -15 85 -20 212 -24 l162
-4 0 145 0 145 -91 4 c-88 3 -92 4 -120 36 l-29 32 0 175 0 175 115 0 115 0 0
130 0 130 -120 0 -120 0 0 140 0 140 -37 -1 c-36 0 -48 -11 -248 -226z"/>
<path d="M4482 1960 c-173 -32 -318 -134 -386 -273 -29 -58 -56 -170 -56 -232
0 -62 27 -174 57 -235 57 -119 199 -226 343 -261 71 -17 219 -17 290 0 151 37
284 139 345 266 143 297 -11 636 -326 721 -71 18 -201 25 -267 14z m194 -309
c160 -73 160 -319 -1 -392 -74 -34 -177 -19 -233 34 -87 81 -87 243 0 324 57
53 159 68 234 34z"/>
<path d="M5750 1955 c-64 -18 -125 -52 -159 -89 -14 -14 -28 -26 -32 -26 -3 0
-16 23 -28 50 l-22 50 -114 0 -115 0 0 -485 0 -485 165 0 164 0 3 308 c3 339
5 347 67 389 40 27 97 30 130 7 47 -34 51 -61 51 -394 l0 -310 159 0 160 0 3
303 c3 257 6 308 20 339 30 68 122 100 177 62 47 -34 51 -61 51 -394 l0 -310
165 0 166 0 -3 363 c-3 351 -4 364 -26 419 -31 76 -99 150 -170 185 -49 24
-68 28 -142 27 -106 -1 -179 -27 -247 -88 l-48 -44 -52 48 c-84 77 -210 106
-323 75z"/>
<path d="M8513 1960 c-294 -53 -472 -323 -408 -623 69 -328 457 -493 777 -331
74 37 161 125 202 203 20 38 36 74 36 80 0 8 -51 11 -164 11 -161 0 -164 0
-179 -24 -38 -58 -164 -84 -244 -51 -48 20 -71 41 -94 87 -37 72 -59 68 341
68 l360 0 0 88 c0 150 -44 255 -148 354 -94 90 -202 135 -347 143 -44 2 -103
0 -132 -5z m172 -261 c43 -12 118 -81 128 -118 5 -21 5 -21 -194 -21 l-199 0
19 38 c48 93 139 130 246 101z"/>
<path d="M10343 1960 c-62 -13 -131 -46 -179 -85 l-42 -34 -21 49 -22 50 -114
0 -115 0 0 -485 0 -485 164 0 165 0 3 303 c3 297 3 303 26 340 59 94 199 99
244 7 16 -31 18 -70 18 -342 l0 -308 165 0 166 0 -3 358 c-3 347 -4 359 -26
414 -32 80 -106 158 -180 191 -67 30 -178 42 -249 27z"/>
<path d="M3350 1455 l0 -485 165 0 165 0 0 278 c0 244 2 281 18 312 27 53 65
70 181 77 l101 6 0 150 0 150 -92 -6 c-111 -6 -171 -26 -227 -73 l-41 -35 -27
55 -27 56 -108 0 -108 0 0 -485z"/>
<path d="M9310 1455 l0 -485 165 0 165 0 0 485 0 485 -165 0 -165 0 0 -485z"/>
<path d="M1577 1298 c21 -50 24 -74 21 -132 -5 -84 -24 -129 -81 -185 -116
-116 -334 -104 -477 25 -75 67 -27 1 64 -90 140 -139 299 -214 471 -223 289
-16 485 171 391 372 -29 63 -130 158 -216 205 -55 30 -186 90 -195 90 -1 0 9
-28 22 -62z"/>
</g>
</svg>
